<?xml version="1.0"?>
<svg width="24" height="24" xmlns="http://www.w3.org/2000/svg" xmlns:svg="http://www.w3.org/2000/svg" stroke-width="0">
 <title/>
 <g class="layer">
  <title>Layer 1</title>
  <path d="m6.38,18.93l-0.23,0l-1.13,-1.14l0,-0.23l1.73,-1.71l1.2,0l0.15,0.15l0,1.2l-1.71,1.73l-0.01,0zm-1.36,-12.73l0,-0.21l1.13,-1.13l0.23,0l1.71,1.71l0,1.2l-0.15,0.15l-1.2,0l-1.72,-1.72zm9.96,9.09l-1.65,0l-0.14,-0.13l0,-3.83c0,-0.68 -0.27,-1.2 -1.1,-1.23c-0.42,0 -0.9,0 -1.43,0.02l-0.07,0.08l0,4.96l-0.14,0.14l-1.66,0l-0.13,-0.14l0,-6.54l0.13,-0.14l3.7,0a2.6,2.6 0 0 1 2.61,2.6l0,4.08l-0.13,0.14l0.01,-0.01zm-8.37,-2.44l-6.58,0l-0.14,-0.14l0,-1.64l0.14,-0.14l6.58,0l0.14,0.14l0,1.64l-0.14,0.14zm17.14,0l-6.58,0l-0.14,-0.14l0,-1.64l0.14,-0.14l6.58,0l0.14,0.14l0,1.64l-0.14,0.14zm-12.81,-6.41l0,-4.91l0.14,-0.14l1.65,0l0.14,0.14l0,4.9l-0.14,0.14l-1.65,0l-0.14,-0.13zm0,15.81l0,-4.9l0.14,-0.14l1.65,0l0.14,0.13l0,4.91l-0.14,0.14l-1.65,0l-0.14,-0.14z" fill="#ffffff" id="svg_1"/>
 </g>
</svg>